<svg width="70" height="70" viewBox="0 0 70 70" fill="none" xmlns="http://www.w3.org/2000/svg">
<rect y="29.1665" width="40.8333" height="40.8333" fill="#FF851B"/>
<path d="M18.5527 54.775L19.2819 61.25L24.0069 56.7583L32.0861 34.5917C30.1027 34.0958 28.3527 33.1042 26.9236 31.7333L18.5527 54.775ZM43.0819 31.7333C41.6527 33.1042 39.8736 34.0958 37.9194 34.5917L45.9986 56.7583L50.7236 61.25L51.4819 54.775L43.0819 31.7333ZM43.5777 25.0833C44.4527 20.5333 41.8277 16.5083 37.9194 15.1083V11.6667C37.9194 10.0625 36.6069 8.75 35.0027 8.75C33.3986 8.75 32.0861 10.0625 32.0861 11.6667V15.1083C28.7027 16.3333 26.2527 19.5417 26.2527 23.3333C26.2527 28.7 31.0944 32.9583 36.6361 31.9375C40.0777 31.2958 42.9069 28.525 43.5777 25.0833ZM35.0027 26.25C33.3986 26.25 32.0861 24.9375 32.0861 23.3333C32.0861 21.7292 33.3986 20.4167 35.0027 20.4167C36.6069 20.4167 37.9194 21.7292 37.9194 23.3333C37.9194 24.9375 36.6069 26.25 35.0027 26.25Z" fill="#2D2D2D"/>
</svg>
