<svg width="70" height="70" viewBox="0 0 70 70" fill="none" xmlns="http://www.w3.org/2000/svg">
<g clip-path="url(#clip0_205_3214)">
<rect y="29.1667" width="40.8333" height="40.8333" fill="#FF851B"/>
<path d="M56.875 8.74992C54.9416 8.75147 53.0878 9.52019 51.7207 10.8873C50.3536 12.2544 49.5849 14.1082 49.5833 16.0416C49.5833 17.0828 49.8108 18.0716 50.2075 18.9728L44.5054 25.3866C42.5684 24.0495 40.2704 23.3334 37.9167 23.3333C35.7583 23.3333 33.7633 23.9633 32.0279 24.9841L25.3954 18.3545L25.3283 18.4216C25.9 17.2608 26.25 15.9687 26.25 14.5833C26.25 12.8527 25.7368 11.1609 24.7754 9.72202C23.8139 8.28309 22.4473 7.16158 20.8485 6.49931C19.2496 5.83704 17.4903 5.66376 15.793 6.00138C14.0956 6.33901 12.5365 7.17236 11.3128 8.39607C10.0891 9.61978 9.25575 11.1789 8.91813 12.8762C8.58051 14.5735 8.75379 16.3329 9.41606 17.9317C10.0783 19.5306 11.1998 20.8972 12.6388 21.8586C14.0777 22.8201 15.7694 23.3333 17.5 23.3333C18.8854 23.3333 20.1746 22.9833 21.3383 22.4116L21.2713 22.4787L27.9038 29.1083C26.8323 30.8875 26.2609 32.923 26.25 34.9999C26.25 37.9078 27.3583 40.5387 29.1229 42.5862L21.6067 50.0995C20.7642 49.7623 19.8657 49.5872 18.9583 49.5833C14.9392 49.5833 11.6667 52.8528 11.6667 56.8749C11.6667 60.897 14.9392 64.1666 18.9583 64.1666C22.9775 64.1666 26.25 60.897 26.25 56.8749C26.25 55.9387 26.0575 55.0491 25.7338 54.2237L34.0113 45.9462C35.2392 46.3837 36.54 46.6666 37.9167 46.6666C44.3508 46.6666 49.5833 41.4341 49.5833 34.9999C49.5833 33.1449 49.1079 31.4153 48.335 29.8549L54.5096 22.9045C55.2563 23.1612 56.0438 23.3333 56.875 23.3333C60.8971 23.3333 64.1667 20.0637 64.1667 16.0416C64.1667 12.0195 60.8971 8.74992 56.875 8.74992ZM37.9167 40.8333C34.6996 40.8333 32.0833 38.217 32.0833 34.9999C32.0833 31.7828 34.6996 29.1666 37.9167 29.1666C41.1338 29.1666 43.75 31.7828 43.75 34.9999C43.75 38.217 41.1338 40.8333 37.9167 40.8333Z" fill="#2D2D2D"/>
</g>
<defs>
<clipPath id="clip0_205_3214">
<rect width="70" height="70" fill="white"/>
</clipPath>
</defs>
</svg>
