<svg width="70" height="70" viewBox="0 0 70 70" fill="none" xmlns="http://www.w3.org/2000/svg">
<rect y="29.1665" width="40.8333" height="40.8333" fill="#FF851B"/>
<path d="M32.082 17.5H40.832L50.4278 7.87495C50.699 7.60158 51.0216 7.38459 51.377 7.23652C51.7324 7.08844 52.1136 7.01221 52.4987 7.01221C52.8837 7.01221 53.2649 7.08844 53.6203 7.23652C53.9758 7.38459 54.2984 7.60158 54.5695 7.87495L62.0945 15.4291C62.6377 15.9756 62.9426 16.7148 62.9426 17.4854C62.9426 18.2559 62.6377 18.9951 62.0945 19.5416L55.4153 26.25H32.082V32.0833C32.082 32.8568 31.7747 33.5987 31.2277 34.1457C30.6807 34.6927 29.9389 34.9999 29.1653 34.9999C28.3918 34.9999 27.6499 34.6927 27.1029 34.1457C26.556 33.5987 26.2487 32.8568 26.2487 32.0833V23.3333C26.2487 21.7862 26.8632 20.3025 27.9572 19.2085C29.0512 18.1145 30.5349 17.5 32.082 17.5ZM14.582 32.0833V43.7499L7.90283 50.4291C7.3596 50.9756 7.05469 51.7148 7.05469 52.4854C7.05469 53.2559 7.3596 53.9951 7.90283 54.5416L15.4278 62.0958C15.699 62.3692 16.0216 62.5861 16.377 62.7342C16.7324 62.8823 17.1136 62.9585 17.4987 62.9585C17.8837 62.9585 18.2649 62.8823 18.6203 62.7342C18.9758 62.5861 19.2984 62.3692 19.5695 62.0958L32.082 49.5833H43.7487C44.5222 49.5833 45.2641 49.276 45.8111 48.729C46.358 48.182 46.6653 47.4402 46.6653 46.6666V43.7499H49.582C50.3555 43.7499 51.0974 43.4427 51.6444 42.8957C52.1914 42.3487 52.4987 41.6068 52.4987 40.8333V37.9166H55.4153C56.1889 37.9166 56.9307 37.6093 57.4777 37.0623C58.0247 36.5154 58.332 35.7735 58.332 34.9999V32.0833H37.9153V34.9999C37.9153 36.547 37.3007 38.0308 36.2068 39.1247C35.1128 40.2187 33.6291 40.8333 32.082 40.8333H26.2487C24.7016 40.8333 23.2178 40.2187 22.1239 39.1247C21.0299 38.0308 20.4153 36.547 20.4153 34.9999V26.25L14.582 32.0833Z" fill="#2D2D2D"/>
</svg>
